<!-- sample rectangle -->
<svg class="w-40 md:w-52" width="129" height="114" viewBox="0 0 129 114" fill="none" xmlns="http://www.w3.org/2000/svg">
        <path d="M89.9117 25.4382H88.753C85.83 23.1121 82.5909 21.2249 79.1061 19.8204C74.5065 17.9595 69.4242 16.9764 64.4032 16.9764H64.1136C59.0136 17.0291 53.8698 18.1 49.2263 20.075C46.0312 21.4268 43.0028 23.235 40.2378 25.4382H37.5781C40.8523 22.6118 44.5741 20.3471 48.647 18.6969C53.4924 16.7218 58.8205 15.6861 64.1136 15.7563C69.3715 15.8002 74.6909 16.8974 79.4748 18.9426C83.2493 20.5578 86.7516 22.7259 89.9117 25.4382Z" fill="white"/>
        <path d="M111.014 25.4382H107.995C97.9615 11.0601 81.5908 2.50169 64.0966 2.50169C46.6023 2.50169 30.258 11.0601 20.2073 25.4382H17.1965C27.6071 9.50641 45.1276 0 64.0966 0C83.0655 0 100.612 9.50641 111.014 25.4382Z" fill="white"/>
        <path d="M84.1375 11.9641C78.0018 9.21668 71.2955 7.75078 64.5804 7.78589C61.2361 7.78589 57.8829 8.11067 54.6176 8.80412C51.3522 9.49757 48.1571 10.5597 45.1112 11.929C39.0369 14.6853 33.4981 18.6704 29.0916 23.6826C28.5825 24.2619 28.0734 24.85 27.5994 25.4469H26.4583C27.0815 24.6394 27.7486 23.8669 28.4333 23.1032C30.7067 20.5577 33.2435 18.2754 35.991 16.2916C38.7385 14.2903 41.7054 12.5962 44.8215 11.2444C47.9289 9.90135 51.1854 8.87434 54.5123 8.216C57.8391 7.54889 61.2273 7.268 64.6068 7.32066C71.3657 7.46111 78.0983 9.01479 84.155 11.9729L84.1375 11.9641Z" fill="white"/>
        <path d="M90.7566 87.8312C87.3771 90.9123 83.5851 93.3262 79.4858 95.0642C74.7107 97.1094 69.3913 98.2067 64.1246 98.2593H63.8261C58.6472 98.2593 53.4244 97.2499 48.6756 95.3187C44.2779 93.5368 40.2576 91.0264 36.7552 87.8312H39.3008C42.3116 90.368 45.6297 92.4221 49.2373 93.9406C53.8633 95.9244 59.0159 96.9865 64.1246 97.0392C69.2596 97.1094 74.4298 96.0912 79.1171 94.1952C82.9794 92.6415 86.5344 90.4997 89.6857 87.8312H90.7653H90.7566Z" fill="white"/>
        <path d="M120.029 60.181C119.485 69.9068 116.395 79.3606 111.059 87.5327C100.657 103.491 83.1011 113.024 64.1058 113.024C45.1105 113.024 27.5636 103.491 17.1619 87.5327C12.6325 80.5807 9.76215 72.9088 8.63859 64.7279C8.42792 63.2269 8.2787 61.6908 8.19092 60.181H10.6926C11.2632 69.8717 14.4671 79.2289 19.9883 87.2519C30.0039 101.832 46.515 110.522 64.1058 110.522C81.6966 110.522 98.2165 101.832 108.241 87.2519C113.753 79.2026 116.975 69.8542 117.528 60.181H120.029Z" fill="white"/>
        <path d="M110.814 62.5422C110.462 67.2384 109.392 71.8994 107.618 76.3059C103.475 86.6374 95.3909 95.3802 85.3842 100.34C80.3896 102.833 74.9297 104.386 69.3821 104.93C63.8258 105.466 58.1728 105.018 52.792 103.579C50.106 102.833 47.499 101.832 44.9622 100.673C42.4605 99.4443 40.0729 98.0223 37.7994 96.4159C35.5699 94.7569 33.4983 92.9224 31.5672 90.921C29.6624 88.9021 27.9595 86.7164 26.4321 84.4079C32.761 93.4578 42.3464 100.147 52.9851 102.815C53.6435 102.991 54.3106 103.105 54.9865 103.263L55.9959 103.473L57.0141 103.631C57.6813 103.728 58.3572 103.86 59.0331 103.939L61.0871 104.114C61.763 104.193 62.4389 104.184 63.1323 104.211C63.8258 104.219 64.5104 104.272 65.1863 104.237C65.871 104.211 66.5644 104.211 67.2491 104.167L69.2944 104.009C74.7366 103.421 80.056 101.876 84.9453 99.4267C89.8433 97.0128 94.3112 93.6948 98.033 89.7009C101.781 85.6982 104.774 81.0284 106.916 75.9899C108.724 71.7326 109.839 67.1594 110.269 62.5422H110.831H110.814Z" fill="white"/>
        <path d="M16.3882 37.2795C16.3882 33.4173 13.2633 30.2924 9.40108 30.2924C9.14652 30.2924 8.91829 30.3011 8.68129 30.3275H0.746117C0.395003 30.3275 0.0877785 30.5908 0.00877785 30.9595C0.00877785 31.0209 0 31.0648 0 31.1175V53.1499C0 53.58 0.333558 53.9399 0.746117 53.9399H9.40108C9.45374 53.9399 9.50641 53.9399 9.57663 53.9311C13.3511 53.8345 16.3795 50.736 16.3795 46.9352C16.3795 45.0567 15.6421 43.3626 14.4396 42.1073C15.6333 40.8521 16.3795 39.1492 16.3795 37.2707L16.3882 37.2795ZM8.5584 48.8926H5.89871V44.8548H8.5584C9.67319 44.8548 10.5773 45.7501 10.5773 46.8649C10.5773 47.9797 9.67319 48.8926 8.5584 48.8926ZM8.5584 39.6759H5.89871V35.6381H8.5584C9.67319 35.6381 10.5773 36.5334 10.5773 37.6658C10.5773 38.7981 9.67319 39.6759 8.5584 39.6759Z" fill="white"/>
        <path d="M32.5738 30.3889C26.0606 30.3889 20.7852 35.6732 20.7852 42.1688C20.7852 47.3302 24.0944 51.7015 28.7116 53.2991C29.7824 53.6853 30.9411 53.896 32.1261 53.9399C32.2139 53.9487 32.3192 53.9487 32.4158 53.9487H32.5738C33.197 53.9487 33.8115 53.896 34.4172 53.8082C36.1025 53.5361 37.665 52.9129 39.0255 52.0175C39.0519 52.0088 39.0606 51.9912 39.087 51.9824C42.2558 49.8757 44.3449 46.268 44.3449 42.1688C44.3449 35.6644 39.0694 30.3889 32.5738 30.3889ZM32.5738 48.2343C29.2119 48.2343 26.4995 45.5219 26.4995 42.1688C26.4995 38.8157 29.2207 36.1033 32.5738 36.1033C35.9269 36.1033 38.6393 38.8157 38.6393 42.1688C38.6393 45.5219 35.9182 48.2343 32.5738 48.2343Z" fill="white"/>
        <path d="M71.0487 33.8386V53.9487H65.5801L55.389 41.5719V53.9487H49.6659V31.2404H54.2567C54.5376 31.2667 54.7132 31.3457 54.8712 31.4686L55.3276 32.0216L65.1325 43.8893V31.2404H68.2047C68.3539 31.2228 68.4329 31.2228 68.5558 31.2228C69.8462 31.2228 70.9171 32.2586 71.0224 33.6016L71.04 33.8299L71.0487 33.8386Z" fill="white"/>
        <path d="M97.7499 33.8386V53.9487H92.2813L82.0902 41.5719V53.9487H76.3671V31.2404H80.9579C81.2388 31.2667 81.4143 31.3457 81.5723 31.4686L82.0288 32.0216L91.8336 43.8893V31.2404H94.9059C95.0551 31.2228 95.1341 31.2228 95.257 31.2228C96.5473 31.2228 97.6182 32.2586 97.7236 33.6016L97.7411 33.8299L97.7499 33.8386Z" fill="white"/>
        <path d="M109.073 33.7948V53.9048L103.147 53.9487V31.2053H106.22C106.378 31.1877 106.465 31.1877 106.571 31.1877C107.861 31.1877 108.932 32.2235 109.055 33.5665L109.073 33.7948Z" fill="white"/>
        <path d="M120.02 45.4693V48.4099H128.122V53.9487H114.481V31.2404L126.051 31.1877C127.174 31.1965 128.096 32.1358 128.096 33.2593C128.096 33.3647 128.087 33.4524 128.069 33.5402V36.7266H120.02V39.9217H128.122V45.4605H120.02V45.4693Z" fill="white"/>
        <path d="M66.9587 65.36L66.2213 63.7799C66.2213 63.7799 66.2125 63.7097 66.2038 63.6834L65.958 63.2182C65.5893 62.6564 64.9397 62.2789 64.2024 62.2789C63.5528 62.2789 62.9823 62.5686 62.6048 63.0075C62.5961 63.0338 62.5697 63.0426 62.5697 63.0602L62.1133 64.0433V64.0608L61.4988 65.3512L52.9404 83.4248H58.4178L60.3489 79.3606H68.1085L70.0485 83.4248H75.5171L66.9587 65.3512V65.36ZM62.6751 74.4099L64.2375 71.127L65.7912 74.4099H62.6663H62.6751Z" fill="#FFD719"/>
        <path d="M50.1937 80.1857C48.1924 82.187 45.4361 83.4335 42.3902 83.4335C36.8514 83.4335 32.2694 79.3342 31.4881 74.0061C31.4179 73.497 31.3828 72.944 31.3828 72.3997C31.3828 72.0135 31.3916 71.6273 31.4355 71.2586C31.6286 69.3714 32.322 67.607 33.3578 66.1148C33.4456 65.9656 33.5422 65.8427 33.6475 65.711C34.1039 65.1317 34.5955 64.5962 35.1573 64.1134C36.0526 63.3234 37.0884 62.6739 38.2208 62.2262C38.6333 62.0419 39.0547 61.8839 39.5023 61.7698C39.7218 61.6995 39.9588 61.6557 40.1694 61.6118C40.898 61.4538 41.6353 61.3748 42.4078 61.3748C45.4537 61.3748 48.1924 62.63 50.1937 64.5962L47.4463 67.2735L47.1829 67.5192L47.1303 67.5895C46.8845 67.7563 46.5685 67.844 46.2437 67.844C46.033 67.844 45.8224 67.8089 45.6468 67.7299C45.6293 67.7299 45.6205 67.7124 45.5854 67.6948C45.4976 67.6334 45.3747 67.5631 45.2781 67.5017C44.4179 67.0277 43.4524 66.7468 42.4078 66.7468C39.2653 66.7468 36.7461 69.2924 36.7461 72.4085C36.7461 75.5246 39.2653 78.0966 42.4078 78.0966C43.4699 78.0966 44.453 77.8069 45.2957 77.2978H45.3133C45.401 77.2627 45.4976 77.1924 45.5766 77.131C45.6117 77.1134 45.6468 77.1134 45.6556 77.0959C45.8399 77.0169 46.0506 76.9642 46.27 76.9642C46.7177 76.9642 47.0952 77.1486 47.3761 77.4382L50.2113 80.1945L50.1937 80.1857Z" fill="#FFD719"/>
        <path d="M96.9784 83.3896H90.1229L84.5402 77.8069V83.4423H79.6948V75.1472C79.6948 74.9629 79.6948 74.8137 79.6948 74.6557C79.6948 73.9446 79.9933 73.3829 80.5287 73.0142C80.8623 72.786 81.2309 72.7421 81.6611 72.7421C81.8454 72.7421 82.021 72.7333 82.2141 72.7333H87.7968C89.1749 72.5929 90.2546 71.4254 90.2546 70.0034C90.2546 68.5814 89.2451 67.5017 87.9372 67.291H79.4052V62.4457C79.4052 62.4457 87.1823 62.3842 87.5071 62.3842C91.7117 62.3842 95.1263 65.79 95.1263 69.9946C95.1263 73.1195 93.2478 75.8055 90.5442 76.9818L96.9608 83.3984L96.9784 83.3896Z" fill="#FFD719"/>
        <path d="M23.8338 66.8171L23.4739 66.4221L20.1822 62.7266L19.2429 61.682C19.2429 61.682 19.1639 61.603 19.1288 61.5679C19.0937 61.5328 19.0586 61.4889 19.0323 61.445C18.567 60.7955 18.6461 59.8826 19.2517 59.3295C19.8925 58.7502 20.8932 58.8029 21.4813 59.4524C21.6744 59.6631 21.7973 59.9177 21.85 60.1898C21.85 60.2249 21.8675 60.26 21.8763 60.2951C21.8939 60.3566 21.9202 60.4092 21.9641 60.4531C22.0255 60.5233 22.1045 60.5584 22.1835 60.5936H22.2976L23.3685 60.6726C23.4036 59.8826 23.1579 59.0838 22.5961 58.4518C21.4637 57.1878 19.5238 57.0824 18.2774 58.2235C17.0836 59.3032 16.9256 61.1202 17.8824 62.3755C17.9087 62.4018 17.9263 62.4281 17.9438 62.4545L18.1545 62.6915C17.7946 62.8846 17.4523 63.1304 17.1538 63.4288C16.4077 64.1837 16.0127 65.1756 16.0127 66.2377C16.0127 67.2998 16.434 68.2917 17.1801 69.0291C17.3557 69.2046 17.54 69.3626 17.7419 69.4943C18.488 70.0034 19.3658 70.2316 20.2348 70.1702C20.4631 70.1526 20.6913 70.1175 20.9195 70.0649C21.5954 69.8981 22.2362 69.547 22.7541 69.0115C22.9472 68.8096 23.114 68.6165 23.2544 68.3883L25.0714 70.4248L27.1781 70.5389L23.8513 66.8171H23.8338ZM21.613 67.8879C21.1653 68.3444 20.5772 68.5902 19.9539 68.5902C19.3219 68.5902 18.7338 68.3532 18.2862 67.8967C17.8385 67.4578 17.5927 66.8609 17.5927 66.2289C17.5927 65.5969 17.8297 65 18.2774 64.5524C18.5495 64.2715 18.8918 64.0608 19.2693 63.9555L22.1133 67.1331C21.9992 67.4052 21.8324 67.6685 21.6217 67.8879H21.613Z" fill="white"/>
      </svg>